# Blender 3.1.0
# www.blender.org
mtllib flag.mtl
o Cylinder
v 0.000000 0.000000 -0.214972
v 0.000000 4.200027 -0.214972
v 0.041939 0.000000 -0.210841
v 0.041939 4.200027 -0.210841
v 0.082266 0.000000 -0.198608
v 0.082266 4.200027 -0.198608
v 0.119432 0.000000 -0.178743
v 0.119432 4.200027 -0.178743
v 0.152008 0.000000 -0.152008
v 0.152008 4.200027 -0.152008
v 0.178743 0.000000 -0.119432
v 0.178743 4.200027 -0.119432
v 0.198608 0.000000 -0.082266
v 0.198608 4.200027 -0.082266
v 0.210841 0.000000 -0.041939
v 0.210841 4.200027 -0.041939
v 0.214972 0.000000 0.000000
v 0.214972 4.200027 0.000000
v 0.210841 0.000000 0.041939
v 0.210841 4.200027 0.041939
v 0.198608 0.000000 0.082266
v 0.198608 4.200027 0.082266
v 0.178743 0.000000 0.119432
v 0.178743 4.200027 0.119432
v 0.152008 0.000000 0.152008
v 0.152008 4.200027 0.152008
v 0.119432 0.000000 0.178743
v 0.119432 4.200027 0.178743
v 0.082266 0.000000 0.198608
v 0.082266 4.200027 0.198608
v 0.041939 0.000000 0.210841
v 0.041939 4.200027 0.210841
v -0.000000 0.000000 0.214972
v -0.000000 4.200027 0.214972
v -0.041939 0.000000 0.210841
v -0.041939 4.200027 0.210841
v -0.082266 0.000000 0.198608
v -0.082266 4.200027 0.198608
v -0.119432 0.000000 0.178743
v -0.119432 4.200027 0.178743
v -0.152008 0.000000 0.152008
v -0.152008 4.200027 0.152008
v -0.178743 0.000000 0.119432
v -0.178743 4.200027 0.119432
v -0.198608 0.000000 0.082266
v -0.198608 4.200027 0.082266
v -0.210841 0.000000 0.041939
v -0.210841 4.200027 0.041939
v -0.214972 0.000000 -0.000000
v -0.214972 4.200027 -0.000000
v -0.210841 0.000000 -0.041939
v -0.210841 4.200027 -0.041939
v -0.198608 0.000000 -0.082266
v -0.198608 4.200027 -0.082266
v -0.178743 0.000000 -0.119432
v -0.178743 4.200027 -0.119432
v -0.152008 0.000000 -0.152008
v -0.152008 4.200027 -0.152008
v -0.119432 0.000000 -0.178743
v -0.119432 4.200027 -0.178743
v -0.082266 0.000000 -0.198608
v -0.082266 4.200027 -0.198608
v -0.041939 0.000000 -0.210841
v -0.041939 4.200027 -0.210841
v -0.000000 4.129583 0.073504
v 0.000000 2.129583 0.073504
v -0.000000 4.129583 -2.486128
v 0.000000 2.129583 -2.486128
v -0.000000 4.129583 -2.289233
v -0.000000 4.129583 -2.092338
v -0.000000 4.129583 -1.895443
v -0.000000 4.129583 -1.698549
v -0.000000 4.129583 -1.501654
v -0.000000 4.129583 -1.304759
v -0.000000 4.129583 -1.107865
v -0.000000 4.129583 -0.910970
v -0.000000 4.129583 -0.714075
v -0.000000 4.129583 -0.517181
v -0.000000 4.129583 -0.320286
v -0.000000 4.129583 -0.123391
v 0.000000 2.129583 -0.123391
v 0.000000 2.129583 -0.320286
v 0.000000 2.129583 -0.517181
v 0.000000 2.129583 -0.714075
v 0.000000 2.129583 -0.910970
v 0.000000 2.129583 -1.107865
v 0.000000 2.129583 -1.304759
v 0.000000 2.129583 -1.501654
v 0.000000 2.129583 -1.698549
v 0.000000 2.129583 -1.895443
v 0.000000 2.129583 -2.092338
v 0.000000 2.129583 -2.289233
v -0.000000 3.949928 0.073504
v -0.000000 3.768110 0.073504
v -0.000000 3.586291 0.073504
v -0.000000 3.404473 0.073504
v -0.000000 3.222655 0.073504
v 0.000000 3.040837 0.073504
v 0.000000 2.859019 0.073504
v 0.000000 2.677201 0.073504
v 0.000000 2.495383 0.073504
v 0.000000 2.313565 0.073504
v 0.000000 2.313565 -2.486128
v 0.000000 2.495383 -2.486128
v 0.000000 2.677201 -2.486128
v 0.000000 2.859019 -2.486128
v 0.000000 3.040837 -2.486128
v -0.000000 3.222655 -2.486128
v -0.000000 3.404474 -2.486128
v -0.000000 3.586292 -2.486128
v -0.000000 3.768110 -2.486128
v -0.000000 3.949928 -2.486128
v 0.000000 2.313565 -0.123391
v 0.000000 2.495383 -0.123391
v 0.000000 2.677201 -0.123391
v 0.000000 2.859019 -0.123391
v 0.000000 3.040837 -0.123391
v -0.000000 3.222655 -0.123391
v -0.000000 3.404474 -0.123391
v -0.000000 3.586292 -0.123391
v -0.000000 3.768110 -0.123391
v -0.000000 3.949928 -0.123391
v 0.000000 2.313565 -0.320286
v 0.000000 2.495383 -0.320286
v 0.000000 2.677201 -0.320286
v 0.000000 2.859019 -0.320286
v 0.000000 3.040837 -0.320286
v -0.000000 3.222655 -0.320286
v -0.000000 3.404474 -0.320286
v -0.000000 3.586292 -0.320286
v -0.000000 3.768110 -0.320286
v -0.000000 3.949928 -0.320286
v 0.000000 2.313565 -0.517181
v 0.000000 2.495383 -0.517181
v 0.000000 2.677201 -0.517181
v 0.000000 2.859019 -0.517181
v 0.000000 3.040837 -0.517181
v -0.000000 3.222655 -0.517181
v -0.000000 3.404474 -0.517181
v -0.000000 3.586292 -0.517181
v -0.000000 3.768110 -0.517181
v -0.000000 3.949928 -0.517181
v 0.000000 2.313565 -0.714075
v 0.000000 2.495383 -0.714075
v 0.000000 2.677201 -0.714075
v 0.000000 2.859019 -0.714075
v 0.000000 3.040837 -0.714075
v -0.000000 3.222655 -0.714075
v -0.000000 3.404474 -0.714075
v -0.000000 3.586292 -0.714075
v -0.000000 3.768110 -0.714075
v -0.000000 3.949928 -0.714075
v 0.000000 2.313565 -0.910970
v 0.000000 2.495383 -0.910970
v 0.000000 2.677201 -0.910970
v 0.000000 2.859019 -0.910970
v 0.000000 3.040837 -0.910970
v -0.000000 3.222655 -0.910970
v -0.000000 3.404474 -0.910970
v -0.000000 3.586292 -0.910970
v -0.000000 3.768110 -0.910970
v -0.000000 3.949928 -0.910970
v 0.000000 2.313565 -1.107865
v 0.000000 2.495383 -1.107865
v 0.000000 2.677201 -1.107865
v 0.000000 2.859019 -1.107865
v 0.000000 3.040837 -1.107865
v -0.000000 3.222655 -1.107865
v -0.000000 3.404474 -1.107865
v -0.000000 3.586292 -1.107865
v -0.000000 3.768110 -1.107865
v -0.000000 3.949928 -1.107865
v 0.000000 2.313565 -1.304759
v 0.000000 2.495383 -1.304759
v 0.000000 2.677201 -1.304759
v 0.000000 2.859019 -1.304759
v 0.000000 3.040837 -1.304759
v -0.000000 3.222655 -1.304759
v -0.000000 3.404474 -1.304759
v -0.000000 3.586292 -1.304759
v -0.000000 3.768110 -1.304759
v -0.000000 3.949928 -1.304759
v 0.000000 2.313565 -1.501654
v 0.000000 2.495383 -1.501654
v 0.000000 2.677201 -1.501654
v 0.000000 2.859019 -1.501654
v 0.000000 3.040837 -1.501654
v -0.000000 3.222655 -1.501654
v -0.000000 3.404474 -1.501654
v -0.000000 3.586292 -1.501654
v -0.000000 3.768110 -1.501654
v -0.000000 3.949928 -1.501654
v 0.000000 2.313565 -1.698549
v 0.000000 2.495383 -1.698549
v 0.000000 2.677201 -1.698549
v 0.000000 2.859019 -1.698549
v 0.000000 3.040837 -1.698549
v -0.000000 3.222655 -1.698549
v -0.000000 3.404474 -1.698549
v -0.000000 3.586292 -1.698549
v -0.000000 3.768110 -1.698549
v -0.000000 3.949928 -1.698549
v 0.000000 2.313565 -1.895443
v 0.000000 2.495383 -1.895443
v 0.000000 2.677201 -1.895443
v 0.000000 2.859019 -1.895443
v 0.000000 3.040837 -1.895443
v -0.000000 3.222655 -1.895443
v -0.000000 3.404474 -1.895443
v -0.000000 3.586292 -1.895443
v -0.000000 3.768110 -1.895443
v -0.000000 3.949928 -1.895443
v 0.000000 2.313565 -2.092338
v 0.000000 2.495383 -2.092338
v 0.000000 2.677201 -2.092338
v 0.000000 2.859019 -2.092338
v 0.000000 3.040837 -2.092338
v -0.000000 3.222655 -2.092338
v -0.000000 3.404474 -2.092338
v -0.000000 3.586292 -2.092338
v -0.000000 3.768110 -2.092338
v -0.000000 3.949928 -2.092338
v 0.000000 2.313565 -2.289233
v 0.000000 2.495383 -2.289233
v 0.000000 2.677201 -2.289233
v 0.000000 2.859019 -2.289233
v 0.000000 3.040837 -2.289233
v -0.000000 3.222655 -2.289233
v -0.000000 3.404474 -2.289233
v -0.000000 3.586292 -2.289233
v -0.000000 3.768110 -2.289233
v -0.000000 3.949928 -2.289233
vn -0.0000 -1.4400 -0.1565
vn -0.0000 1.4400 -0.1565
vn 0.0305 1.4400 -0.1535
vn 0.0305 -1.4400 -0.1535
vn 0.0599 1.4400 -0.1446
vn 0.0599 -1.4400 -0.1446
vn 0.0869 1.4400 -0.1301
vn 0.0869 -1.4400 -0.1301
vn 0.1106 1.4400 -0.1106
vn 0.1106 -1.4400 -0.1106
vn 0.1301 1.4400 -0.0869
vn 0.1301 -1.4400 -0.0869
vn 0.1446 1.4400 -0.0599
vn 0.1446 -1.4400 -0.0599
vn 0.1535 1.4400 -0.0305
vn 0.1535 -1.4400 -0.0305
vn 0.1565 1.4400 -0.0000
vn 0.1565 -1.4400 -0.0000
vn 0.1535 1.4400 0.0305
vn 0.1535 -1.4400 0.0305
vn 0.1446 1.4400 0.0599
vn 0.1446 -1.4400 0.0599
vn 0.1301 1.4400 0.0869
vn 0.1301 -1.4400 0.0869
vn 0.1106 1.4400 0.1106
vn 0.1106 -1.4400 0.1106
vn 0.0869 1.4400 0.1301
vn 0.0869 -1.4400 0.1301
vn 0.0599 1.4400 0.1446
vn 0.0599 -1.4400 0.1446
vn 0.0305 1.4400 0.1535
vn 0.0305 -1.4400 0.1535
vn -0.0000 1.4400 0.1565
vn -0.0000 -1.4400 0.1565
vn -0.0305 1.4400 0.1535
vn -0.0305 -1.4400 0.1535
vn -0.0599 1.4400 0.1446
vn -0.0599 -1.4400 0.1446
vn -0.0869 1.4400 0.1301
vn -0.0869 -1.4400 0.1301
vn -0.1106 1.4400 0.1106
vn -0.1106 -1.4400 0.1106
vn -0.1301 1.4400 0.0869
vn -0.1301 -1.4400 0.0869
vn -0.1446 1.4400 0.0599
vn -0.1446 -1.4400 0.0599
vn -0.1535 1.4400 0.0305
vn -0.1535 -1.4400 0.0305
vn -0.1565 1.4400 -0.0000
vn -0.1565 -1.4400 -0.0000
vn -0.1535 1.4400 -0.0305
vn -0.1535 -1.4400 -0.0305
vn -0.1446 1.4400 -0.0599
vn -0.1446 -1.4400 -0.0599
vn -0.1301 1.4400 -0.0869
vn -0.1301 -1.4400 -0.0869
vn -0.1106 1.4400 -0.1106
vn -0.1106 -1.4400 -0.1106
vn -0.0869 1.4400 -0.1301
vn -0.0869 -1.4400 -0.1301
vn -0.0599 1.4400 -0.1446
vn -0.0599 -1.4400 -0.1446
vn -0.0305 1.4400 -0.1535
vn -0.0305 -1.4400 -0.1535
vn 0.2150 -0.0000 -0.0000
vt 0.149403 0.922904
vt 0.019692 0.922904
vt 0.116975 0.921607
vt 0.149403 0.987760
vt 0.052120 0.921607
vt 0.019692 0.987760
vt 0.145350 0.922904
vt 0.123049 0.921009
vt 0.145350 0.987760
vt 0.058193 0.921009
vt 0.141296 0.922904
vt 0.128888 0.919238
vt 0.141296 0.987760
vt 0.064033 0.919238
vt 0.137243 0.922904
vt 0.134271 0.916361
vt 0.137243 0.987760
vt 0.069415 0.916361
vt 0.133189 0.922904
vt 0.138988 0.912489
vt 0.133189 0.987760
vt 0.074132 0.912489
vt 0.129136 0.922904
vt 0.142859 0.907772
vt 0.129136 0.987760
vt 0.078004 0.907772
vt 0.125082 0.922904
vt 0.145736 0.902390
vt 0.125082 0.987760
vt 0.080881 0.902390
vt 0.121029 0.922904
vt 0.147508 0.896550
vt 0.121029 0.987760
vt 0.082652 0.896550
vt 0.116975 0.922904
vt 0.148106 0.890477
vt 0.116975 0.987760
vt 0.083250 0.890477
vt 0.112922 0.922904
vt 0.147508 0.884403
vt 0.112922 0.987760
vt 0.082652 0.884403
vt 0.108868 0.922904
vt 0.145736 0.878563
vt 0.108868 0.987760
vt 0.080881 0.878563
vt 0.104815 0.922904
vt 0.142859 0.873181
vt 0.104815 0.987760
vt 0.078004 0.873181
vt 0.100761 0.922904
vt 0.138988 0.868464
vt 0.100761 0.987760
vt 0.074132 0.868464
vt 0.096708 0.922904
vt 0.134271 0.864592
vt 0.096708 0.987760
vt 0.069415 0.864592
vt 0.092654 0.922904
vt 0.128888 0.861716
vt 0.092654 0.987760
vt 0.064033 0.861716
vt 0.088601 0.922904
vt 0.123049 0.859944
vt 0.088601 0.987760
vt 0.058193 0.859944
vt 0.084547 0.922904
vt 0.116975 0.859346
vt 0.084547 0.987760
vt 0.052120 0.859346
vt 0.080494 0.922904
vt 0.110902 0.859944
vt 0.080494 0.987760
vt 0.046046 0.859944
vt 0.076440 0.922904
vt 0.105062 0.861716
vt 0.076440 0.987760
vt 0.040206 0.861716
vt 0.072387 0.922904
vt 0.099680 0.864592
vt 0.072387 0.987760
vt 0.034824 0.864592
vt 0.068334 0.922904
vt 0.094963 0.868464
vt 0.068334 0.987760
vt 0.030107 0.868464
vt 0.064280 0.922904
vt 0.091091 0.873181
vt 0.064280 0.987760
vt 0.026235 0.873181
vt 0.060227 0.922904
vt 0.088214 0.878563
vt 0.060227 0.987760
vt 0.023359 0.878563
vt 0.056173 0.922904
vt 0.086443 0.884403
vt 0.056173 0.987760
vt 0.021587 0.884403
vt 0.052120 0.922904
vt 0.085845 0.890477
vt 0.052120 0.987760
vt 0.020989 0.890477
vt 0.048066 0.922904
vt 0.086443 0.896550
vt 0.048066 0.987760
vt 0.021587 0.896550
vt 0.044013 0.922904
vt 0.088214 0.902390
vt 0.044013 0.987760
vt 0.023359 0.902390
vt 0.039959 0.922904
vt 0.091091 0.907772
vt 0.039959 0.987760
vt 0.026235 0.907772
vt 0.035906 0.922904
vt 0.094963 0.912489
vt 0.035906 0.987760
vt 0.030107 0.912489
vt 0.031852 0.922904
vt 0.099680 0.916361
vt 0.031852 0.987760
vt 0.034824 0.916361
vt 0.027799 0.922904
vt 0.105062 0.919238
vt 0.040206 0.919238
vt 0.027799 0.987760
vt 0.023745 0.922904
vt 0.110902 0.921009
vt 0.046046 0.921009
vt 0.023745 0.987760
vt 0.668185 0.014340
vt 0.668185 0.650829
vt 0.013330 0.014326
vt 0.013330 0.650835
vt 0.063704 0.014326
vt 0.114078 0.014323
vt 0.164453 0.014320
vt 0.214827 0.014320
vt 0.265201 0.014321
vt 0.315575 0.014322
vt 0.365948 0.014324
vt 0.416322 0.014326
vt 0.466695 0.014328
vt 0.517068 0.014331
vt 0.567441 0.014334
vt 0.617813 0.014337
vt 0.617813 0.650828
vt 0.567441 0.650828
vt 0.517068 0.650828
vt 0.466695 0.650828
vt 0.416322 0.650829
vt 0.365948 0.650830
vt 0.315575 0.650831
vt 0.265201 0.650833
vt 0.214827 0.650835
vt 0.164453 0.650837
vt 0.114078 0.650835
vt 0.063704 0.650832
vt 0.668185 0.071515
vt 0.668185 0.129377
vt 0.668185 0.187240
vt 0.668185 0.245103
vt 0.668185 0.302965
vt 0.668185 0.360828
vt 0.668185 0.418690
vt 0.668185 0.476553
vt 0.668185 0.534415
vt 0.668185 0.592278
vt 0.013330 0.592282
vt 0.013330 0.534417
vt 0.013330 0.476553
vt 0.013330 0.418688
vt 0.013330 0.360824
vt 0.013330 0.302960
vt 0.013330 0.245095
vt 0.013330 0.187231
vt 0.013330 0.129366
vt 0.013330 0.071502
vt 0.617813 0.592277
vt 0.617813 0.534414
vt 0.617813 0.476551
vt 0.617813 0.418688
vt 0.617813 0.360826
vt 0.617813 0.302963
vt 0.617813 0.245100
vt 0.617813 0.187237
vt 0.617813 0.129374
vt 0.617813 0.071511
vt 0.567441 0.592277
vt 0.567441 0.534414
vt 0.567441 0.476550
vt 0.567441 0.418687
vt 0.567441 0.360824
vt 0.567441 0.302961
vt 0.567441 0.245098
vt 0.567441 0.187234
vt 0.567441 0.129371
vt 0.567441 0.071508
vt 0.517068 0.592276
vt 0.517068 0.534413
vt 0.517068 0.476550
vt 0.517068 0.418686
vt 0.517068 0.360823
vt 0.517068 0.302959
vt 0.517068 0.245096
vt 0.517068 0.187232
vt 0.517068 0.129369
vt 0.517068 0.071505
vt 0.466695 0.592277
vt 0.466695 0.534413
vt 0.466695 0.476549
vt 0.466695 0.418685
vt 0.466695 0.360822
vt 0.466695 0.302958
vt 0.466695 0.245094
vt 0.466695 0.187230
vt 0.466695 0.129367
vt 0.466695 0.071503
vt 0.416322 0.592277
vt 0.416322 0.534413
vt 0.416322 0.476549
vt 0.416322 0.418685
vt 0.416322 0.360821
vt 0.416322 0.302957
vt 0.416322 0.245093
vt 0.416322 0.187229
vt 0.416322 0.129365
vt 0.416322 0.071501
vt 0.365948 0.592278
vt 0.365948 0.534413
vt 0.365948 0.476549
vt 0.365948 0.418685
vt 0.365948 0.360821
vt 0.365948 0.302956
vt 0.365948 0.245092
vt 0.365948 0.187228
vt 0.365948 0.129364
vt 0.365948 0.071499
vt 0.315575 0.592279
vt 0.315575 0.534414
vt 0.315575 0.476550
vt 0.315575 0.418685
vt 0.315575 0.360821
vt 0.315575 0.302956
vt 0.315575 0.245092
vt 0.315575 0.187227
vt 0.315575 0.129362
vt 0.315575 0.071498
vt 0.265201 0.592280
vt 0.265201 0.534415
vt 0.265201 0.476551
vt 0.265201 0.418686
vt 0.265201 0.360821
vt 0.265201 0.302956
vt 0.265201 0.245092
vt 0.265201 0.187227
vt 0.265201 0.129362
vt 0.265201 0.071497
vt 0.214827 0.592282
vt 0.214827 0.534417
vt 0.214827 0.476552
vt 0.214827 0.418687
vt 0.214827 0.360822
vt 0.214827 0.302957
vt 0.214827 0.245092
vt 0.214827 0.187227
vt 0.214827 0.129362
vt 0.214827 0.071497
vt 0.164452 0.592284
vt 0.164452 0.534418
vt 0.164452 0.476553
vt 0.164453 0.418688
vt 0.164453 0.360823
vt 0.164453 0.302958
vt 0.164453 0.245092
vt 0.164453 0.187227
vt 0.164453 0.129362
vt 0.164453 0.071497
vt 0.114078 0.592281
vt 0.114078 0.534417
vt 0.114078 0.476552
vt 0.114078 0.418688
vt 0.114078 0.360823
vt 0.114078 0.302958
vt 0.114078 0.245094
vt 0.114078 0.187229
vt 0.114078 0.129365
vt 0.114078 0.071500
vt 0.063704 0.592279
vt 0.063704 0.534415
vt 0.063704 0.476551
vt 0.063704 0.418687
vt 0.063704 0.360823
vt 0.063704 0.302959
vt 0.063704 0.245095
vt 0.063704 0.187231
vt 0.063704 0.129366
vt 0.063704 0.071503
s 1
usemtl Material.001
f 1/1/1 2/4/2 4/9/3 3/7/4
f 3/7/4 4/9/3 6/13/5 5/11/6
f 5/11/6 6/13/5 8/17/7 7/15/8
f 7/15/8 8/17/7 10/21/9 9/19/10
f 9/19/10 10/21/9 12/25/11 11/23/12
f 11/23/12 12/25/11 14/29/13 13/27/14
f 13/27/14 14/29/13 16/33/15 15/31/16
f 15/31/16 16/33/15 18/37/17 17/35/18
f 17/35/18 18/37/17 20/41/19 19/39/20
f 19/39/20 20/41/19 22/45/21 21/43/22
f 21/43/22 22/45/21 24/49/23 23/47/24
f 23/47/24 24/49/23 26/53/25 25/51/26
f 25/51/26 26/53/25 28/57/27 27/55/28
f 27/55/28 28/57/27 30/61/29 29/59/30
f 29/59/30 30/61/29 32/65/31 31/63/32
f 31/63/32 32/65/31 34/69/33 33/67/34
f 33/67/34 34/69/33 36/73/35 35/71/36
f 35/71/36 36/73/35 38/77/37 37/75/38
f 37/75/38 38/77/37 40/81/39 39/79/40
f 39/79/40 40/81/39 42/85/41 41/83/42
f 41/83/42 42/85/41 44/89/43 43/87/44
f 43/87/44 44/89/43 46/93/45 45/91/46
f 45/91/46 46/93/45 48/97/47 47/95/48
f 47/95/48 48/97/47 50/101/49 49/99/50
f 49/99/50 50/101/49 52/105/51 51/103/52
f 51/103/52 52/105/51 54/109/53 53/107/54
f 53/107/54 54/109/53 56/113/55 55/111/56
f 55/111/56 56/113/55 58/117/57 57/115/58
f 57/115/58 58/117/57 60/121/59 59/119/60
f 59/119/60 60/121/59 62/126/61 61/123/62
f 4/10/3 2/5/2 64/129/63 62/125/61 60/122/59 58/118/57 56/114/55 54/110/53 52/106/51 50/102/49 48/98/47 46/94/45 44/90/43 42/86/41 40/82/39 38/78/37 36/74/35 34/70/33 32/66/31 30/62/29 28/58/27 26/54/25 24/50/23 22/46/21 20/42/19 18/38/17 16/34/15 14/30/13 12/26/11 10/22/9 8/18/7 6/14/5
f 61/123/62 62/126/61 64/130/63 63/127/64
f 63/127/64 64/130/63 2/6/2 1/2/1
f 1/3/1 3/8/4 5/12/6 7/16/8 9/20/10 11/24/12 13/28/14 15/32/16 17/36/18 19/40/20 21/44/22 23/48/24 25/52/26 27/56/28 29/60/30 31/64/32 33/68/34 35/72/36 37/76/38 39/80/40 41/84/42 43/88/44 45/92/46 47/96/48 49/100/50 51/104/52 53/108/54 55/112/56 57/116/58 59/120/60 61/124/62 63/128/64
f 223/289/65 92/158/65 68/134/65 103/169/65
f 102/168/65 66/132/65 81/147/65 113/179/65
f 113/179/65 81/147/65 82/148/65 123/189/65
f 123/189/65 82/148/65 83/149/65 133/199/65
f 133/199/65 83/149/65 84/150/65 143/209/65
f 143/209/65 84/150/65 85/151/65 153/219/65
f 153/219/65 85/151/65 86/152/65 163/229/65
f 163/229/65 86/152/65 87/153/65 173/239/65
f 173/239/65 87/153/65 88/154/65 183/249/65
f 183/249/65 88/154/65 89/155/65 193/259/65
f 193/259/65 89/155/65 90/156/65 203/269/65
f 203/269/65 90/156/65 91/157/65 213/279/65
f 213/279/65 91/157/65 92/158/65 223/289/65
f 70/136/65 222/288/65 232/298/65 69/135/65
f 222/288/65 221/287/65 231/297/65 232/298/65
f 221/287/65 220/286/65 230/296/65 231/297/65
f 220/286/65 219/285/65 229/295/65 230/296/65
f 219/285/65 218/284/65 228/294/65 229/295/65
f 218/284/65 217/283/65 227/293/65 228/294/65
f 217/283/65 216/282/65 226/292/65 227/293/65
f 216/282/65 215/281/65 225/291/65 226/292/65
f 215/281/65 214/280/65 224/290/65 225/291/65
f 214/280/65 213/279/65 223/289/65 224/290/65
f 71/137/65 212/278/65 222/288/65 70/136/65
f 212/278/65 211/277/65 221/287/65 222/288/65
f 211/277/65 210/276/65 220/286/65 221/287/65
f 210/276/65 209/275/65 219/285/65 220/286/65
f 209/275/65 208/274/65 218/284/65 219/285/65
f 208/274/65 207/273/65 217/283/65 218/284/65
f 207/273/65 206/272/65 216/282/65 217/283/65
f 206/272/65 205/271/65 215/281/65 216/282/65
f 205/271/65 204/270/65 214/280/65 215/281/65
f 204/270/65 203/269/65 213/279/65 214/280/65
f 72/138/65 202/268/65 212/278/65 71/137/65
f 202/268/65 201/267/65 211/277/65 212/278/65
f 201/267/65 200/266/65 210/276/65 211/277/65
f 200/266/65 199/265/65 209/275/65 210/276/65
f 199/265/65 198/264/65 208/274/65 209/275/65
f 198/264/65 197/263/65 207/273/65 208/274/65
f 197/263/65 196/262/65 206/272/65 207/273/65
f 196/262/65 195/261/65 205/271/65 206/272/65
f 195/261/65 194/260/65 204/270/65 205/271/65
f 194/260/65 193/259/65 203/269/65 204/270/65
f 73/139/65 192/258/65 202/268/65 72/138/65
f 192/258/65 191/257/65 201/267/65 202/268/65
f 191/257/65 190/256/65 200/266/65 201/267/65
f 190/256/65 189/255/65 199/265/65 200/266/65
f 189/255/65 188/254/65 198/264/65 199/265/65
f 188/254/65 187/253/65 197/263/65 198/264/65
f 187/253/65 186/252/65 196/262/65 197/263/65
f 186/252/65 185/251/65 195/261/65 196/262/65
f 185/251/65 184/250/65 194/260/65 195/261/65
f 184/250/65 183/249/65 193/259/65 194/260/65
f 74/140/65 182/248/65 192/258/65 73/139/65
f 182/248/65 181/247/65 191/257/65 192/258/65
f 181/247/65 180/246/65 190/256/65 191/257/65
f 180/246/65 179/245/65 189/255/65 190/256/65
f 179/245/65 178/244/65 188/254/65 189/255/65
f 178/244/65 177/243/65 187/253/65 188/254/65
f 177/243/65 176/242/65 186/252/65 187/253/65
f 176/242/65 175/241/65 185/251/65 186/252/65
f 175/241/65 174/240/65 184/250/65 185/251/65
f 174/240/65 173/239/65 183/249/65 184/250/65
f 75/141/65 172/238/65 182/248/65 74/140/65
f 172/238/65 171/237/65 181/247/65 182/248/65
f 171/237/65 170/236/65 180/246/65 181/247/65
f 170/236/65 169/235/65 179/245/65 180/246/65
f 169/235/65 168/234/65 178/244/65 179/245/65
f 168/234/65 167/233/65 177/243/65 178/244/65
f 167/233/65 166/232/65 176/242/65 177/243/65
f 166/232/65 165/231/65 175/241/65 176/242/65
f 165/231/65 164/230/65 174/240/65 175/241/65
f 164/230/65 163/229/65 173/239/65 174/240/65
f 76/142/65 162/228/65 172/238/65 75/141/65
f 162/228/65 161/227/65 171/237/65 172/238/65
f 161/227/65 160/226/65 170/236/65 171/237/65
f 160/226/65 159/225/65 169/235/65 170/236/65
f 159/225/65 158/224/65 168/234/65 169/235/65
f 158/224/65 157/223/65 167/233/65 168/234/65
f 157/223/65 156/222/65 166/232/65 167/233/65
f 156/222/65 155/221/65 165/231/65 166/232/65
f 155/221/65 154/220/65 164/230/65 165/231/65
f 154/220/65 153/219/65 163/229/65 164/230/65
f 77/143/65 152/218/65 162/228/65 76/142/65
f 152/218/65 151/217/65 161/227/65 162/228/65
f 151/217/65 150/216/65 160/226/65 161/227/65
f 150/216/65 149/215/65 159/225/65 160/226/65
f 149/215/65 148/214/65 158/224/65 159/225/65
f 148/214/65 147/213/65 157/223/65 158/224/65
f 147/213/65 146/212/65 156/222/65 157/223/65
f 146/212/65 145/211/65 155/221/65 156/222/65
f 145/211/65 144/210/65 154/220/65 155/221/65
f 144/210/65 143/209/65 153/219/65 154/220/65
f 78/144/65 142/208/65 152/218/65 77/143/65
f 142/208/65 141/207/65 151/217/65 152/218/65
f 141/207/65 140/206/65 150/216/65 151/217/65
f 140/206/65 139/205/65 149/215/65 150/216/65
f 139/205/65 138/204/65 148/214/65 149/215/65
f 138/204/65 137/203/65 147/213/65 148/214/65
f 137/203/65 136/202/65 146/212/65 147/213/65
f 136/202/65 135/201/65 145/211/65 146/212/65
f 135/201/65 134/200/65 144/210/65 145/211/65
f 134/200/65 133/199/65 143/209/65 144/210/65
f 79/145/65 132/198/65 142/208/65 78/144/65
f 132/198/65 131/197/65 141/207/65 142/208/65
f 131/197/65 130/196/65 140/206/65 141/207/65
f 130/196/65 129/195/65 139/205/65 140/206/65
f 129/195/65 128/194/65 138/204/65 139/205/65
f 128/194/65 127/193/65 137/203/65 138/204/65
f 127/193/65 126/192/65 136/202/65 137/203/65
f 126/192/65 125/191/65 135/201/65 136/202/65
f 125/191/65 124/190/65 134/200/65 135/201/65
f 124/190/65 123/189/65 133/199/65 134/200/65
f 80/146/65 122/188/65 132/198/65 79/145/65
f 122/188/65 121/187/65 131/197/65 132/198/65
f 121/187/65 120/186/65 130/196/65 131/197/65
f 120/186/65 119/185/65 129/195/65 130/196/65
f 119/185/65 118/184/65 128/194/65 129/195/65
f 118/184/65 117/183/65 127/193/65 128/194/65
f 117/183/65 116/182/65 126/192/65 127/193/65
f 116/182/65 115/181/65 125/191/65 126/192/65
f 115/181/65 114/180/65 124/190/65 125/191/65
f 114/180/65 113/179/65 123/189/65 124/190/65
f 65/131/65 93/159/65 122/188/65 80/146/65
f 93/159/65 94/160/65 121/187/65 122/188/65
f 94/160/65 95/161/65 120/186/65 121/187/65
f 95/161/65 96/162/65 119/185/65 120/186/65
f 96/162/65 97/163/65 118/184/65 119/185/65
f 97/163/65 98/164/65 117/183/65 118/184/65
f 98/164/65 99/165/65 116/182/65 117/183/65
f 99/165/65 100/166/65 115/181/65 116/182/65
f 100/166/65 101/167/65 114/180/65 115/181/65
f 101/167/65 102/168/65 113/179/65 114/180/65
f 69/135/65 232/298/65 112/178/65 67/133/65
f 232/298/65 231/297/65 111/177/65 112/178/65
f 231/297/65 230/296/65 110/176/65 111/177/65
f 230/296/65 229/295/65 109/175/65 110/176/65
f 229/295/65 228/294/65 108/174/65 109/175/65
f 228/294/65 227/293/65 107/173/65 108/174/65
f 227/293/65 226/292/65 106/172/65 107/173/65
f 226/292/65 225/291/65 105/171/65 106/172/65
f 225/291/65 224/290/65 104/170/65 105/171/65
f 224/290/65 223/289/65 103/169/65 104/170/65
