# Blender 3.1.0
# www.blender.org
mtllib flag.mtl
o Cylinder
v 0.000000 0.000000 -0.214972
v 0.000000 4.200027 -0.214972
v 0.041939 0.000000 -0.210841
v 0.041939 4.200027 -0.210841
v 0.082266 0.000000 -0.198608
v 0.082266 4.200027 -0.198608
v 0.119432 0.000000 -0.178743
v 0.119432 4.200027 -0.178743
v 0.152008 0.000000 -0.152008
v 0.152008 4.200027 -0.152008
v 0.178743 0.000000 -0.119432
v 0.178743 4.200027 -0.119432
v 0.198608 0.000000 -0.082266
v 0.198608 4.200027 -0.082266
v 0.210841 0.000000 -0.041939
v 0.210841 4.200027 -0.041939
v 0.214972 0.000000 0.000000
v 0.214972 4.200027 0.000000
v 0.210841 0.000000 0.041939
v 0.210841 4.200027 0.041939
v 0.198608 0.000000 0.082266
v 0.198608 4.200027 0.082266
v 0.178743 0.000000 0.119432
v 0.178743 4.200027 0.119432
v 0.152008 0.000000 0.152008
v 0.152008 4.200027 0.152008
v 0.119432 0.000000 0.178743
v 0.119432 4.200027 0.178743
v 0.082266 0.000000 0.198608
v 0.082266 4.200027 0.198608
v 0.041939 0.000000 0.210841
v 0.041939 4.200027 0.210841
v -0.000000 0.000000 0.214972
v -0.000000 4.200027 0.214972
v -0.041939 0.000000 0.210841
v -0.041939 4.200027 0.210841
v -0.082266 0.000000 0.198608
v -0.082266 4.200027 0.198608
v -0.119432 0.000000 0.178743
v -0.119432 4.200027 0.178743
v -0.152008 0.000000 0.152008
v -0.152008 4.200027 0.152008
v -0.178743 0.000000 0.119432
v -0.178743 4.200027 0.119432
v -0.198608 0.000000 0.082266
v -0.198608 4.200027 0.082266
v -0.210841 0.000000 0.041939
v -0.210841 4.200027 0.041939
v -0.214972 0.000000 -0.000000
v -0.214972 4.200027 -0.000000
v -0.210841 0.000000 -0.041939
v -0.210841 4.200027 -0.041939
v -0.198608 0.000000 -0.082266
v -0.198608 4.200027 -0.082266
v -0.178743 0.000000 -0.119432
v -0.178743 4.200027 -0.119432
v -0.152008 0.000000 -0.152008
v -0.152008 4.200027 -0.152008
v -0.119432 0.000000 -0.178743
v -0.119432 4.200027 -0.178743
v -0.082266 0.000000 -0.198608
v -0.082266 4.200027 -0.198608
v -0.041939 0.000000 -0.210841
v -0.041939 4.200027 -0.210841
v -0.000000 4.129583 0.073504
v 0.000000 2.129583 0.073504
v -0.000000 4.129583 -2.486128
v 0.000000 2.129583 -2.486128
v -0.000000 4.129583 -2.289233
v -0.000000 4.129583 -2.092338
v -0.000000 4.129583 -1.895443
v -0.000000 4.129583 -1.698549
v -0.000000 4.129583 -1.501654
v -0.000000 4.129583 -1.304759
v -0.000000 4.129583 -1.107865
v -0.000000 4.129583 -0.910970
v -0.000000 4.129583 -0.714075
v -0.000000 4.129583 -0.517181
v -0.000000 4.129583 -0.320286
v -0.000000 4.129583 -0.123391
v 0.000000 2.129583 -0.123391
v 0.000000 2.129583 -0.320286
v 0.000000 2.129583 -0.517181
v 0.000000 2.129583 -0.714075
v 0.000000 2.129583 -0.910970
v 0.000000 2.129583 -1.107865
v 0.000000 2.129583 -1.304759
v 0.000000 2.129583 -1.501654
v 0.000000 2.129583 -1.698549
v 0.000000 2.129583 -1.895443
v 0.000000 2.129583 -2.092338
v 0.000000 2.129583 -2.289233
v -0.000000 3.949928 0.073504
v -0.000000 3.768110 0.073504
v -0.000000 3.586291 0.073504
v -0.000000 3.404473 0.073504
v -0.000000 3.222655 0.073504
v 0.000000 3.040837 0.073504
v 0.000000 2.859019 0.073504
v 0.000000 2.677201 0.073504
v 0.000000 2.495383 0.073504
v 0.000000 2.313565 0.073504
v 0.000000 2.313565 -2.486128
v 0.000000 2.495383 -2.486128
v 0.000000 2.677201 -2.486128
v 0.000000 2.859019 -2.486128
v 0.000000 3.040837 -2.486128
v -0.000000 3.222655 -2.486128
v -0.000000 3.404474 -2.486128
v -0.000000 3.586292 -2.486128
v -0.000000 3.768110 -2.486128
v -0.000000 3.949928 -2.486128
v 0.000000 2.313565 -0.123391
v 0.000000 2.495383 -0.123391
v 0.000000 2.677201 -0.123391
v 0.000000 2.859019 -0.123391
v 0.000000 3.040837 -0.123391
v -0.000000 3.222655 -0.123391
v -0.000000 3.404474 -0.123391
v -0.000000 3.586292 -0.123391
v -0.000000 3.768110 -0.123391
v -0.000000 3.949928 -0.123391
v 0.000000 2.313565 -0.320286
v 0.000000 2.495383 -0.320286
v 0.000000 2.677201 -0.320286
v 0.000000 2.859019 -0.320286
v 0.000000 3.040837 -0.320286
v -0.000000 3.222655 -0.320286
v -0.000000 3.404474 -0.320286
v -0.000000 3.586292 -0.320286
v -0.000000 3.768110 -0.320286
v -0.000000 3.949928 -0.320286
v 0.000000 2.313565 -0.517181
v 0.000000 2.495383 -0.517181
v 0.000000 2.677201 -0.517181
v 0.000000 2.859019 -0.517181
v 0.000000 3.040837 -0.517181
v -0.000000 3.222655 -0.517181
v -0.000000 3.404474 -0.517181
v -0.000000 3.586292 -0.517181
v -0.000000 3.768110 -0.517181
v -0.000000 3.949928 -0.517181
v 0.000000 2.313565 -0.714075
v 0.000000 2.495383 -0.714075
v 0.000000 2.677201 -0.714075
v 0.000000 2.859019 -0.714075
v 0.000000 3.040837 -0.714075
v -0.000000 3.222655 -0.714075
v -0.000000 3.404474 -0.714075
v -0.000000 3.586292 -0.714075
v -0.000000 3.768110 -0.714075
v -0.000000 3.949928 -0.714075
v 0.000000 2.313565 -0.910970
v 0.000000 2.495383 -0.910970
v 0.000000 2.677201 -0.910970
v 0.000000 2.859019 -0.910970
v 0.000000 3.040837 -0.910970
v -0.000000 3.222655 -0.910970
v -0.000000 3.404474 -0.910970
v -0.000000 3.586292 -0.910970
v -0.000000 3.768110 -0.910970
v -0.000000 3.949928 -0.910970
v 0.000000 2.313565 -1.107865
v 0.000000 2.495383 -1.107865
v 0.000000 2.677201 -1.107865
v 0.000000 2.859019 -1.107865
v 0.000000 3.040837 -1.107865
v -0.000000 3.222655 -1.107865
v -0.000000 3.404474 -1.107865
v -0.000000 3.586292 -1.107865
v -0.000000 3.768110 -1.107865
v -0.000000 3.949928 -1.107865
v 0.000000 2.313565 -1.304759
v 0.000000 2.495383 -1.304759
v 0.000000 2.677201 -1.304759
v 0.000000 2.859019 -1.304759
v 0.000000 3.040837 -1.304759
v -0.000000 3.222655 -1.304759
v -0.000000 3.404474 -1.304759
v -0.000000 3.586292 -1.304759
v -0.000000 3.768110 -1.304759
v -0.000000 3.949928 -1.304759
v 0.000000 2.313565 -1.501654
v 0.000000 2.495383 -1.501654
v 0.000000 2.677201 -1.501654
v 0.000000 2.859019 -1.501654
v 0.000000 3.040837 -1.501654
v -0.000000 3.222655 -1.501654
v -0.000000 3.404474 -1.501654
v -0.000000 3.586292 -1.501654
v -0.000000 3.768110 -1.501654
v -0.000000 3.949928 -1.501654
v 0.000000 2.313565 -1.698549
v 0.000000 2.495383 -1.698549
v 0.000000 2.677201 -1.698549
v 0.000000 2.859019 -1.698549
v 0.000000 3.040837 -1.698549
v -0.000000 3.222655 -1.698549
v -0.000000 3.404474 -1.698549
v -0.000000 3.586292 -1.698549
v -0.000000 3.768110 -1.698549
v -0.000000 3.949928 -1.698549
v 0.000000 2.313565 -1.895443
v 0.000000 2.495383 -1.895443
v 0.000000 2.677201 -1.895443
v 0.000000 2.859019 -1.895443
v 0.000000 3.040837 -1.895443
v -0.000000 3.222655 -1.895443
v -0.000000 3.404474 -1.895443
v -0.000000 3.586292 -1.895443
v -0.000000 3.768110 -1.895443
v -0.000000 3.949928 -1.895443
v 0.000000 2.313565 -2.092338
v 0.000000 2.495383 -2.092338
v 0.000000 2.677201 -2.092338
v 0.000000 2.859019 -2.092338
v 0.000000 3.040837 -2.092338
v -0.000000 3.222655 -2.092338
v -0.000000 3.404474 -2.092338
v -0.000000 3.586292 -2.092338
v -0.000000 3.768110 -2.092338
v -0.000000 3.949928 -2.092338
v 0.000000 2.313565 -2.289233
v 0.000000 2.495383 -2.289233
v 0.000000 2.677201 -2.289233
v 0.000000 2.859019 -2.289233
v 0.000000 3.040837 -2.289233
v -0.000000 3.222655 -2.289233
v -0.000000 3.404474 -2.289233
v -0.000000 3.586292 -2.289233
v -0.000000 3.768110 -2.289233
v -0.000000 3.949928 -2.289233
vn -0.0000 -1.4400 -0.1565
vn -0.0000 1.4400 -0.1565
vn 0.0305 1.4400 -0.1535
vn 0.0305 -1.4400 -0.1535
vn 0.0599 1.4400 -0.1446
vn 0.0599 -1.4400 -0.1446
vn 0.0869 1.4400 -0.1301
vn 0.0869 -1.4400 -0.1301
vn 0.1106 1.4400 -0.1106
vn 0.1106 -1.4400 -0.1106
vn 0.1301 1.4400 -0.0869
vn 0.1301 -1.4400 -0.0869
vn 0.1446 1.4400 -0.0599
vn 0.1446 -1.4400 -0.0599
vn 0.1535 1.4400 -0.0305
vn 0.1535 -1.4400 -0.0305
vn 0.1565 1.4400 -0.0000
vn 0.1565 -1.4400 -0.0000
vn 0.1535 1.4400 0.0305
vn 0.1535 -1.4400 0.0305
vn 0.1446 1.4400 0.0599
vn 0.1446 -1.4400 0.0599
vn 0.1301 1.4400 0.0869
vn 0.1301 -1.4400 0.0869
vn 0.1106 1.4400 0.1106
vn 0.1106 -1.4400 0.1106
vn 0.0869 1.4400 0.1301
vn 0.0869 -1.4400 0.1301
vn 0.0599 1.4400 0.1446
vn 0.0599 -1.4400 0.1446
vn 0.0305 1.4400 0.1535
vn 0.0305 -1.4400 0.1535
vn -0.0000 1.4400 0.1565
vn -0.0000 -1.4400 0.1565
vn -0.0305 1.4400 0.1535
vn -0.0305 -1.4400 0.1535
vn -0.0599 1.4400 0.1446
vn -0.0599 -1.4400 0.1446
vn -0.0869 1.4400 0.1301
vn -0.0869 -1.4400 0.1301
vn -0.1106 1.4400 0.1106
vn -0.1106 -1.4400 0.1106
vn -0.1301 1.4400 0.0869
vn -0.1301 -1.4400 0.0869
vn -0.1446 1.4400 0.0599
vn -0.1446 -1.4400 0.0599
vn -0.1535 1.4400 0.0305
vn -0.1535 -1.4400 0.0305
vn -0.1565 1.4400 -0.0000
vn -0.1565 -1.4400 -0.0000
vn -0.1535 1.4400 -0.0305
vn -0.1535 -1.4400 -0.0305
vn -0.1446 1.4400 -0.0599
vn -0.1446 -1.4400 -0.0599
vn -0.1301 1.4400 -0.0869
vn -0.1301 -1.4400 -0.0869
vn -0.1106 1.4400 -0.1106
vn -0.1106 -1.4400 -0.1106
vn -0.0869 1.4400 -0.1301
vn -0.0869 -1.4400 -0.1301
vn -0.0599 1.4400 -0.1446
vn -0.0599 -1.4400 -0.1446
vn -0.0305 1.4400 -0.1535
vn -0.0305 -1.4400 -0.1535
vn 0.2150 -0.0000 -0.0000
vt 0.324978 0.829245
vt 0.016613 0.829245
vt 0.250223 0.829245
vt 0.324978 0.988099
vt 0.091368 0.829245
vt 0.016613 0.988099
vt 0.315633 0.829245
vt 0.268911 0.829245
vt 0.315633 0.988099
vt 0.110057 0.829245
vt 0.306289 0.829245
vt 0.278256 0.819900
vt 0.306289 0.988099
vt 0.119401 0.819900
vt 0.296945 0.829245
vt 0.287600 0.819900
vt 0.296945 0.988099
vt 0.138090 0.819900
vt 0.287600 0.829245
vt 0.306289 0.810556
vt 0.287600 0.988099
vt 0.147434 0.810556
vt 0.278256 0.829245
vt 0.315633 0.791867
vt 0.278256 0.988099
vt 0.156779 0.791867
vt 0.268911 0.829245
vt 0.315633 0.782523
vt 0.268911 0.988099
vt 0.166123 0.782523
vt 0.259567 0.829245
vt 0.324978 0.773178
vt 0.259567 0.988099
vt 0.166123 0.773178
vt 0.250223 0.829245
vt 0.324978 0.754490
vt 0.250223 0.988099
vt 0.166123 0.754490
vt 0.240878 0.829245
vt 0.324978 0.735801
vt 0.240878 0.988099
vt 0.166123 0.735801
vt 0.231534 0.829245
vt 0.315633 0.726456
vt 0.231534 0.988099
vt 0.166123 0.726456
vt 0.222189 0.829245
vt 0.315633 0.717112
vt 0.222189 0.988099
vt 0.156779 0.717112
vt 0.212845 0.829245
vt 0.306289 0.698423
vt 0.212845 0.988099
vt 0.147434 0.698423
vt 0.203501 0.829245
vt 0.287600 0.689079
vt 0.203501 0.988099
vt 0.138090 0.689079
vt 0.194156 0.829245
vt 0.278256 0.689079
vt 0.194156 0.988099
vt 0.119401 0.689079
vt 0.184812 0.829245
vt 0.268911 0.679734
vt 0.184812 0.988099
vt 0.110057 0.679734
vt 0.175468 0.829245
vt 0.250223 0.679734
vt 0.175468 0.988099
vt 0.091368 0.679734
vt 0.166123 0.829245
vt 0.231534 0.679734
vt 0.166123 0.988099
vt 0.082024 0.679734
vt 0.156779 0.829245
vt 0.222189 0.689079
vt 0.156779 0.988099
vt 0.063335 0.689079
vt 0.147434 0.829245
vt 0.212845 0.689079
vt 0.147434 0.988099
vt 0.053991 0.689079
vt 0.128746 0.829245
vt 0.194156 0.698423
vt 0.128746 0.988099
vt 0.044646 0.698423
vt 0.119401 0.829245
vt 0.184812 0.717112
vt 0.119401 0.988099
vt 0.035302 0.717112
vt 0.110057 0.829245
vt 0.184812 0.726456
vt 0.110057 0.988099
vt 0.025957 0.726456
vt 0.100712 0.829245
vt 0.175468 0.735801
vt 0.100712 0.988099
vt 0.025957 0.735801
vt 0.091368 0.829245
vt 0.175468 0.754490
vt 0.091368 0.988099
vt 0.016613 0.754490
vt 0.082024 0.829245
vt 0.175468 0.773178
vt 0.082024 0.988099
vt 0.025957 0.773178
vt 0.072679 0.829245
vt 0.184812 0.782523
vt 0.072679 0.988099
vt 0.025957 0.782523
vt 0.063335 0.829245
vt 0.184812 0.791867
vt 0.063335 0.988099
vt 0.035302 0.791867
vt 0.053991 0.829245
vt 0.194156 0.810556
vt 0.053991 0.988099
vt 0.044646 0.810556
vt 0.044646 0.829245
vt 0.212845 0.819900
vt 0.044646 0.988099
vt 0.053991 0.819900
vt 0.035302 0.829245
vt 0.222189 0.819900
vt 0.063335 0.819900
vt 0.035302 0.988099
vt 0.025957 0.829245
vt 0.231534 0.829245
vt 0.082024 0.829245
vt 0.025957 0.988099
vt 0.000028 0.656567
vt 0.000028 0.000028
vt 0.999972 0.656566
vt 0.999972 0.000028
vt 0.923053 0.656567
vt 0.846134 0.656567
vt 0.769216 0.656567
vt 0.692297 0.656567
vt 0.615378 0.656567
vt 0.538459 0.656567
vt 0.461541 0.656567
vt 0.384622 0.656567
vt 0.307703 0.656567
vt 0.230784 0.656567
vt 0.153866 0.656567
vt 0.076947 0.656567
vt 0.076947 0.000028
vt 0.153866 0.000028
vt 0.230784 0.000028
vt 0.307703 0.000028
vt 0.384622 0.000028
vt 0.461541 0.000028
vt 0.538459 0.000028
vt 0.615378 0.000028
vt 0.692297 0.000028
vt 0.769216 0.000028
vt 0.846134 0.000028
vt 0.923053 0.000028
vt 0.000028 0.591502
vt 0.000028 0.525653
vt 0.000028 0.459803
vt 0.000028 0.393954
vt 0.000028 0.328105
vt 0.000028 0.262256
vt 0.000028 0.196407
vt 0.000028 0.130558
vt 0.000028 0.064709
vt 0.000028 -0.001140
vt 0.999972 -0.001140
vt 0.999972 0.064709
vt 0.999972 0.130558
vt 0.999972 0.196407
vt 0.999972 0.262256
vt 0.999972 0.328105
vt 0.999972 0.393954
vt 0.999972 0.459803
vt 0.999972 0.525652
vt 0.999972 0.591501
vt 0.076947 -0.001140
vt 0.076947 0.064709
vt 0.076947 0.130558
vt 0.076947 0.196407
vt 0.076947 0.262256
vt 0.076947 0.328105
vt 0.076947 0.393954
vt 0.076947 0.459804
vt 0.076947 0.525653
vt 0.076947 0.591502
vt 0.153866 -0.001140
vt 0.153866 0.064709
vt 0.153866 0.130558
vt 0.153866 0.196407
vt 0.153866 0.262256
vt 0.153866 0.328105
vt 0.153866 0.393954
vt 0.153866 0.459803
vt 0.153866 0.525652
vt 0.153866 0.591502
vt 0.230784 -0.001140
vt 0.230784 0.064709
vt 0.230784 0.130558
vt 0.230784 0.196407
vt 0.230784 0.262256
vt 0.230784 0.328105
vt 0.230784 0.393954
vt 0.230784 0.459803
vt 0.230784 0.525652
vt 0.230784 0.591502
vt 0.307703 -0.001140
vt 0.307703 0.064709
vt 0.307703 0.130558
vt 0.307703 0.196407
vt 0.307703 0.262256
vt 0.307703 0.328105
vt 0.307703 0.393954
vt 0.307703 0.459803
vt 0.307703 0.525652
vt 0.307703 0.591501
vt 0.384622 -0.001140
vt 0.384622 0.064709
vt 0.384622 0.130558
vt 0.384622 0.196407
vt 0.384622 0.262256
vt 0.384622 0.328105
vt 0.384622 0.393954
vt 0.384622 0.459803
vt 0.384622 0.525652
vt 0.384622 0.591501
vt 0.461541 -0.001140
vt 0.461541 0.064709
vt 0.461541 0.130558
vt 0.461541 0.196407
vt 0.461541 0.262256
vt 0.461541 0.328105
vt 0.461541 0.393954
vt 0.461541 0.459803
vt 0.461541 0.525652
vt 0.461541 0.591501
vt 0.538459 -0.001140
vt 0.538459 0.064709
vt 0.538459 0.130558
vt 0.538459 0.196407
vt 0.538459 0.262256
vt 0.538459 0.328105
vt 0.538459 0.393954
vt 0.538459 0.459803
vt 0.538459 0.525652
vt 0.538459 0.591501
vt 0.615378 -0.001140
vt 0.615378 0.064709
vt 0.615378 0.130558
vt 0.615378 0.196407
vt 0.615378 0.262256
vt 0.615378 0.328105
vt 0.615378 0.393954
vt 0.615378 0.459803
vt 0.615378 0.525652
vt 0.615378 0.591501
vt 0.692297 -0.001140
vt 0.692297 0.064709
vt 0.692297 0.130558
vt 0.692297 0.196407
vt 0.692297 0.262256
vt 0.692297 0.328105
vt 0.692297 0.393954
vt 0.692297 0.459803
vt 0.692297 0.525652
vt 0.692297 0.591501
vt 0.769216 -0.001140
vt 0.769216 0.064709
vt 0.769216 0.130558
vt 0.769216 0.196407
vt 0.769216 0.262256
vt 0.769216 0.328105
vt 0.769216 0.393954
vt 0.769216 0.459803
vt 0.769216 0.525652
vt 0.769216 0.591501
vt 0.846134 -0.001140
vt 0.846134 0.064709
vt 0.846134 0.130558
vt 0.846134 0.196407
vt 0.846134 0.262256
vt 0.846134 0.328105
vt 0.846134 0.393954
vt 0.846134 0.459803
vt 0.846134 0.525652
vt 0.846134 0.591501
vt 0.923053 -0.001140
vt 0.923053 0.064709
vt 0.923053 0.130558
vt 0.923053 0.196407
vt 0.923053 0.262256
vt 0.923053 0.328105
vt 0.923053 0.393954
vt 0.923053 0.459803
vt 0.923053 0.525652
vt 0.923053 0.591501
s 1
f 1/1/1 2/4/2 4/9/3 3/7/4
f 3/7/4 4/9/3 6/13/5 5/11/6
f 5/11/6 6/13/5 8/17/7 7/15/8
f 7/15/8 8/17/7 10/21/9 9/19/10
f 9/19/10 10/21/9 12/25/11 11/23/12
f 11/23/12 12/25/11 14/29/13 13/27/14
f 13/27/14 14/29/13 16/33/15 15/31/16
f 15/31/16 16/33/15 18/37/17 17/35/18
f 17/35/18 18/37/17 20/41/19 19/39/20
f 19/39/20 20/41/19 22/45/21 21/43/22
f 21/43/22 22/45/21 24/49/23 23/47/24
f 23/47/24 24/49/23 26/53/25 25/51/26
f 25/51/26 26/53/25 28/57/27 27/55/28
f 27/55/28 28/57/27 30/61/29 29/59/30
f 29/59/30 30/61/29 32/65/31 31/63/32
f 31/63/32 32/65/31 34/69/33 33/67/34
f 33/67/34 34/69/33 36/73/35 35/71/36
f 35/71/36 36/73/35 38/77/37 37/75/38
f 37/75/38 38/77/37 40/81/39 39/79/40
f 39/79/40 40/81/39 42/85/41 41/83/42
f 41/83/42 42/85/41 44/89/43 43/87/44
f 43/87/44 44/89/43 46/93/45 45/91/46
f 45/91/46 46/93/45 48/97/47 47/95/48
f 47/95/48 48/97/47 50/101/49 49/99/50
f 49/99/50 50/101/49 52/105/51 51/103/52
f 51/103/52 52/105/51 54/109/53 53/107/54
f 53/107/54 54/109/53 56/113/55 55/111/56
f 55/111/56 56/113/55 58/117/57 57/115/58
f 57/115/58 58/117/57 60/121/59 59/119/60
f 59/119/60 60/121/59 62/126/61 61/123/62
f 4/10/3 2/5/2 64/129/63 62/125/61 60/122/59 58/118/57 56/114/55 54/110/53 52/106/51 50/102/49 48/98/47 46/94/45 44/90/43 42/86/41 40/82/39 38/78/37 36/74/35 34/70/33 32/66/31 30/62/29 28/58/27 26/54/25 24/50/23 22/46/21 20/42/19 18/38/17 16/34/15 14/30/13 12/26/11 10/22/9 8/18/7 6/14/5
f 61/123/62 62/126/61 64/130/63 63/127/64
f 63/127/64 64/130/63 2/6/2 1/2/1
f 1/3/1 3/8/4 5/12/6 7/16/8 9/20/10 11/24/12 13/28/14 15/32/16 17/36/18 19/40/20 21/44/22 23/48/24 25/52/26 27/56/28 29/60/30 31/64/32 33/68/34 35/72/36 37/76/38 39/80/40 41/84/42 43/88/44 45/92/46 47/96/48 49/100/50 51/104/52 53/108/54 55/112/56 57/116/58 59/120/60 61/124/62 63/128/64
f 223/289/65 92/158/65 68/134/65 103/169/65
f 102/168/65 66/132/65 81/147/65 113/179/65
f 113/179/65 81/147/65 82/148/65 123/189/65
f 123/189/65 82/148/65 83/149/65 133/199/65
f 133/199/65 83/149/65 84/150/65 143/209/65
f 143/209/65 84/150/65 85/151/65 153/219/65
f 153/219/65 85/151/65 86/152/65 163/229/65
f 163/229/65 86/152/65 87/153/65 173/239/65
f 173/239/65 87/153/65 88/154/65 183/249/65
f 183/249/65 88/154/65 89/155/65 193/259/65
f 193/259/65 89/155/65 90/156/65 203/269/65
f 203/269/65 90/156/65 91/157/65 213/279/65
f 213/279/65 91/157/65 92/158/65 223/289/65
f 70/136/65 222/288/65 232/298/65 69/135/65
f 222/288/65 221/287/65 231/297/65 232/298/65
f 221/287/65 220/286/65 230/296/65 231/297/65
f 220/286/65 219/285/65 229/295/65 230/296/65
f 219/285/65 218/284/65 228/294/65 229/295/65
f 218/284/65 217/283/65 227/293/65 228/294/65
f 217/283/65 216/282/65 226/292/65 227/293/65
f 216/282/65 215/281/65 225/291/65 226/292/65
f 215/281/65 214/280/65 224/290/65 225/291/65
f 214/280/65 213/279/65 223/289/65 224/290/65
f 71/137/65 212/278/65 222/288/65 70/136/65
f 212/278/65 211/277/65 221/287/65 222/288/65
f 211/277/65 210/276/65 220/286/65 221/287/65
f 210/276/65 209/275/65 219/285/65 220/286/65
f 209/275/65 208/274/65 218/284/65 219/285/65
f 208/274/65 207/273/65 217/283/65 218/284/65
f 207/273/65 206/272/65 216/282/65 217/283/65
f 206/272/65 205/271/65 215/281/65 216/282/65
f 205/271/65 204/270/65 214/280/65 215/281/65
f 204/270/65 203/269/65 213/279/65 214/280/65
f 72/138/65 202/268/65 212/278/65 71/137/65
f 202/268/65 201/267/65 211/277/65 212/278/65
f 201/267/65 200/266/65 210/276/65 211/277/65
f 200/266/65 199/265/65 209/275/65 210/276/65
f 199/265/65 198/264/65 208/274/65 209/275/65
f 198/264/65 197/263/65 207/273/65 208/274/65
f 197/263/65 196/262/65 206/272/65 207/273/65
f 196/262/65 195/261/65 205/271/65 206/272/65
f 195/261/65 194/260/65 204/270/65 205/271/65
f 194/260/65 193/259/65 203/269/65 204/270/65
f 73/139/65 192/258/65 202/268/65 72/138/65
f 192/258/65 191/257/65 201/267/65 202/268/65
f 191/257/65 190/256/65 200/266/65 201/267/65
f 190/256/65 189/255/65 199/265/65 200/266/65
f 189/255/65 188/254/65 198/264/65 199/265/65
f 188/254/65 187/253/65 197/263/65 198/264/65
f 187/253/65 186/252/65 196/262/65 197/263/65
f 186/252/65 185/251/65 195/261/65 196/262/65
f 185/251/65 184/250/65 194/260/65 195/261/65
f 184/250/65 183/249/65 193/259/65 194/260/65
f 74/140/65 182/248/65 192/258/65 73/139/65
f 182/248/65 181/247/65 191/257/65 192/258/65
f 181/247/65 180/246/65 190/256/65 191/257/65
f 180/246/65 179/245/65 189/255/65 190/256/65
f 179/245/65 178/244/65 188/254/65 189/255/65
f 178/244/65 177/243/65 187/253/65 188/254/65
f 177/243/65 176/242/65 186/252/65 187/253/65
f 176/242/65 175/241/65 185/251/65 186/252/65
f 175/241/65 174/240/65 184/250/65 185/251/65
f 174/240/65 173/239/65 183/249/65 184/250/65
f 75/141/65 172/238/65 182/248/65 74/140/65
f 172/238/65 171/237/65 181/247/65 182/248/65
f 171/237/65 170/236/65 180/246/65 181/247/65
f 170/236/65 169/235/65 179/245/65 180/246/65
f 169/235/65 168/234/65 178/244/65 179/245/65
f 168/234/65 167/233/65 177/243/65 178/244/65
f 167/233/65 166/232/65 176/242/65 177/243/65
f 166/232/65 165/231/65 175/241/65 176/242/65
f 165/231/65 164/230/65 174/240/65 175/241/65
f 164/230/65 163/229/65 173/239/65 174/240/65
f 76/142/65 162/228/65 172/238/65 75/141/65
f 162/228/65 161/227/65 171/237/65 172/238/65
f 161/227/65 160/226/65 170/236/65 171/237/65
f 160/226/65 159/225/65 169/235/65 170/236/65
f 159/225/65 158/224/65 168/234/65 169/235/65
f 158/224/65 157/223/65 167/233/65 168/234/65
f 157/223/65 156/222/65 166/232/65 167/233/65
f 156/222/65 155/221/65 165/231/65 166/232/65
f 155/221/65 154/220/65 164/230/65 165/231/65
f 154/220/65 153/219/65 163/229/65 164/230/65
f 77/143/65 152/218/65 162/228/65 76/142/65
f 152/218/65 151/217/65 161/227/65 162/228/65
f 151/217/65 150/216/65 160/226/65 161/227/65
f 150/216/65 149/215/65 159/225/65 160/226/65
f 149/215/65 148/214/65 158/224/65 159/225/65
f 148/214/65 147/213/65 157/223/65 158/224/65
f 147/213/65 146/212/65 156/222/65 157/223/65
f 146/212/65 145/211/65 155/221/65 156/222/65
f 145/211/65 144/210/65 154/220/65 155/221/65
f 144/210/65 143/209/65 153/219/65 154/220/65
f 78/144/65 142/208/65 152/218/65 77/143/65
f 142/208/65 141/207/65 151/217/65 152/218/65
f 141/207/65 140/206/65 150/216/65 151/217/65
f 140/206/65 139/205/65 149/215/65 150/216/65
f 139/205/65 138/204/65 148/214/65 149/215/65
f 138/204/65 137/203/65 147/213/65 148/214/65
f 137/203/65 136/202/65 146/212/65 147/213/65
f 136/202/65 135/201/65 145/211/65 146/212/65
f 135/201/65 134/200/65 144/210/65 145/211/65
f 134/200/65 133/199/65 143/209/65 144/210/65
f 79/145/65 132/198/65 142/208/65 78/144/65
f 132/198/65 131/197/65 141/207/65 142/208/65
f 131/197/65 130/196/65 140/206/65 141/207/65
f 130/196/65 129/195/65 139/205/65 140/206/65
f 129/195/65 128/194/65 138/204/65 139/205/65
f 128/194/65 127/193/65 137/203/65 138/204/65
f 127/193/65 126/192/65 136/202/65 137/203/65
f 126/192/65 125/191/65 135/201/65 136/202/65
f 125/191/65 124/190/65 134/200/65 135/201/65
f 124/190/65 123/189/65 133/199/65 134/200/65
f 80/146/65 122/188/65 132/198/65 79/145/65
f 122/188/65 121/187/65 131/197/65 132/198/65
f 121/187/65 120/186/65 130/196/65 131/197/65
f 120/186/65 119/185/65 129/195/65 130/196/65
f 119/185/65 118/184/65 128/194/65 129/195/65
f 118/184/65 117/183/65 127/193/65 128/194/65
f 117/183/65 116/182/65 126/192/65 127/193/65
f 116/182/65 115/181/65 125/191/65 126/192/65
f 115/181/65 114/180/65 124/190/65 125/191/65
f 114/180/65 113/179/65 123/189/65 124/190/65
f 65/131/65 93/159/65 122/188/65 80/146/65
f 93/159/65 94/160/65 121/187/65 122/188/65
f 94/160/65 95/161/65 120/186/65 121/187/65
f 95/161/65 96/162/65 119/185/65 120/186/65
f 96/162/65 97/163/65 118/184/65 119/185/65
f 97/163/65 98/164/65 117/183/65 118/184/65
f 98/164/65 99/165/65 116/182/65 117/183/65
f 99/165/65 100/166/65 115/181/65 116/182/65
f 100/166/65 101/167/65 114/180/65 115/181/65
f 101/167/65 102/168/65 113/179/65 114/180/65
f 69/135/65 232/298/65 112/178/65 67/133/65
f 232/298/65 231/297/65 111/177/65 112/178/65
f 231/297/65 230/296/65 110/176/65 111/177/65
f 230/296/65 229/295/65 109/175/65 110/176/65
f 229/295/65 228/294/65 108/174/65 109/175/65
f 228/294/65 227/293/65 107/173/65 108/174/65
f 227/293/65 226/292/65 106/172/65 107/173/65
f 226/292/65 225/291/65 105/171/65 106/172/65
f 225/291/65 224/290/65 104/170/65 105/171/65
f 224/290/65 223/289/65 103/169/65 104/170/65
